<?xml version="1.0" encoding="utf-8"?>
<!-- Generator: Adobe Illustrator 16.0.0, SVG Export Plug-In . SVG Version: 6.00 Build 0)  -->
<!DOCTYPE svg PUBLIC "-//W3C//DTD SVG 1.1//EN" "http://www.w3.org/Graphics/SVG/1.1/DTD/svg11.dtd">
<svg version="1.1" id="Calque_1" xmlns="http://www.w3.org/2000/svg" xmlns:xlink="http://www.w3.org/1999/xlink" x="0px" y="0px"
	 width="432px" height="432px" viewBox="0 0 432 432" enable-background="new 0 0 432 432" xml:space="preserve">
<g>
	<g>
		<rect x="180.682" y="100.646" fill="#8EC045" width="7.337" height="65.947"/>
		<rect x="195.598" y="115.582" fill="#8EC045" width="7.336" height="50.496"/>
		<path fill="#8EC045" d="M199.266,99.962c-3.022,0-5.48,2.457-5.48,5.479s2.458,5.479,5.48,5.479c3.021,0,5.479-2.458,5.479-5.479
			S202.287,99.962,199.266,99.962z"/>
		<polygon fill="#8EC045" points="240.767,100.262 229.063,154.433 214.419,100.139 207.335,102.049 225.034,167.67 233.709,167.67 
			247.938,101.812 		"/>
		<path fill="#8EC045" d="M271.428,160.754c-6.686-0.216-14.199-9.033-16.461-25.549l35.237-5.245l-0.38-3.506
			c-2.062-18.98-14.387-28.131-24.937-27.091c-5.716,0.56-10.617,3.953-13.802,9.556c-3.326,5.845-4.643,13.97-3.812,23.497
			c0.925,10.575,3.805,19.548,8.335,25.949c4.308,6.085,9.843,9.537,15.584,9.721c0.162,0.006,0.324,0.009,0.486,0.009
			c8.239-0.001,14.566-6.788,16.191-17.442l-7.255-1.104C279.542,156.607,276.032,160.905,271.428,160.754z M257.463,112.547
			c2.002-3.521,4.817-5.556,8.139-5.88c0.358-0.036,0.713-0.052,1.063-0.052c7.593,0,13.319,8.072,15.296,17.154l-27.588,4.107
			C254.259,121.582,255.308,116.333,257.463,112.547z"/>
	</g>
	<g>
		<rect x="124.968" y="265.268" fill="#35AE73" width="7.336" height="65.947"/>
		<path fill="#35AE73" d="M180.864,291.075c-2.06-18.98-14.386-28.13-24.935-27.091c-5.715,0.561-10.618,3.953-13.804,9.556
			c-3.324,5.845-4.643,13.97-3.81,23.497c0.923,10.575,3.805,19.548,8.337,25.949c4.306,6.085,9.839,9.537,15.581,9.721
			c0.162,0.006,0.324,0.009,0.486,0.009c8.239-0.001,14.568-6.788,16.192-17.442l-7.254-1.104
			c-1.076,7.06-4.585,11.357-9.187,11.206c-6.687-0.215-14.201-9.033-16.462-25.548l35.237-5.245L180.864,291.075z M145.414,292.498
			c-0.116-6.295,0.936-11.544,3.088-15.33c2.002-3.521,4.817-5.555,8.141-5.88c0.358-0.036,0.711-0.052,1.063-0.052
			c7.591,0,13.318,8.072,15.296,17.154L145.414,292.498z"/>
		<path fill="#35AE73" d="M222.376,273.861c-4.459-4.517-10.643-7.906-17.691-7.906c-13.674,0.001-20.827,16.217-20.827,32.234
			c0,8.21,1.845,15.857,5.196,21.531c4.15,7.029,10.283,10.746,17.736,10.746c6.272,0,11.566-2.313,15.586-6.744v7.493h7.338
			v-65.805h-7.338V273.861z M222.376,306.35c-0.243,1.854-2.609,16.779-15.586,16.779c-7.763,0-15.595-7.712-15.595-24.939
			c0-6.709,1.449-13.23,3.976-17.892c3.139-5.79,6.906-7.005,9.514-7.005c10.043,0,17.691,10.39,17.691,15.59V306.35z"/>
		<path fill="#35AE73" d="M260.561,264.761c-0.019,0-0.037,0-0.054,0c-4.046,0.018-11.706,2.246-17.657,16.941v-16.574h-7.337
			v67.146h7.337c0-43.783,10.849-60.146,17.688-60.176c0.006,0,0.012,0,0.017,0c4.677,0,9.573,7.938,9.687,21.244l7.337-0.063
			C277.434,276.475,270.441,264.761,260.561,264.761z"/>
		<path fill="#35AE73" d="M329.128,306.402c-1.946-18.073-6.04-30.24-12.169-36.163c-3.218-3.111-6.972-4.561-11.149-4.328
			c-6.288,0.358-11.291,4.211-14.968,11.496v-12.279h-7.336v50.044c-0.364,9.123-0.019,15.985,0.004,16.409l7.332-0.193v-15.883
			c0.171-4.379,0.511-9.28,1.14-14.17c3.075-23.917,10.246-27.871,14.246-28.1c2.108-0.12,3.898,0.603,5.631,2.278
			c9.911,9.576,11.363,43.318,11.089,55.512l7.334,0.168C330.294,330.72,330.534,319.447,329.128,306.402z"/>
	</g>
	<g>
		<g>
			<path fill="#D4175B" d="M77.039,199.929l-0.421-0.027c-35.666-28.916-24.014,12.608-0.305,34.859
				C130.167,201.941,88.705,163.233,77.039,199.929z"/>
			<path fill="#D4175B" d="M340.019,199.398l-0.33-0.019c-36.278-32.353-35.233,23.146-7.135,48.016
				C403.845,220.6,371.253,154.335,340.019,199.398z"/>
		</g>
		<path fill="#020203" d="M374.358,240.021c-15.467,9.195-27.107,7.205-35.241,2.22c20.111-9.211,28.649-22.796,29.565-34.378
			c0.692-8.741-3.252-16.187-9.817-18.528c-3.418-1.219-12.036-2.504-21.785,9.659c-5.897-4.607-14.44-9.219-20.48-3.701
			c-7.602,6.947-4.589,26.665,6.322,41.369c0.795,1.071,1.613,2.092,2.455,3.062c-4.401,1.405-8.858,2.507-13.15,3.309
			c-17.287,3.229-30.892-1.572-37.342-13.168c-2.157-3.876-3.312-8.191-3.518-12.589c21.425,4.27,28.805-4.914,31.098-9.54
			c3.94-7.946,1.289-18.753-5.788-23.597c-2.515-1.72-11.534-6.427-22.115,5.16c-4.974,5.443-8.208,12.071-9.582,18.966
			c-0.493-0.154-0.991-0.314-1.491-0.48c-0.284-0.095-0.562-0.191-0.835-0.291c3.443-13.553,3.67-21.985,0.957-26.563
			c-1.367-2.306-3.468-3.71-6.073-4.06c-5.864-0.785-11.351,4.036-13.068,11.465c-1.803,7.813,0.77,17.141,9.792,22.935
			c-2.403,8.231-5.831,18.238-10.276,29.997l-18.366-52.896l-4.799,0.129l-1.023,1.548c-1.118,1.692-2.379,3.349-3.753,4.949
			c-3.722-15.171-12.927-20.039-18.642-21.598c-11.668-3.179-26.213,2.575-33.828,13.391c-6.285,8.926-6.373,19.072-0.244,27.837
			c1.43,2.045,3.245,3.677,5.393,4.886c-9.696,26.307-18.067,27.686-20.756,27.309c-4.226-0.58-8.698-5.861-12.372-14.421
			c20.931-40.093,14.058-76.528,5.513-86.698c-4.081-4.855-8.185-4.061-9.764-3.495c-9.081,3.259-11.175,23.269-11.333,39.48
			c-0.174,17.831,2.559,36.387,7.745,50.237c-0.239,0.432-0.481,0.863-0.727,1.295c-6.864,12.05-14.924,17.716-23.933,16.855
			c-6.151-0.59-12.329-4.055-17.982-9.005c20.514-14.677,26.216-30.617,23.92-42.107c-1.614-8.072-7.254-13.706-14.034-14.018
			c-6.849-0.313-12.77,4.617-16.537,13.406c-9.388-7.465-15.932-9.767-20.412-7.237c-2.424,1.367-5.032,4.65-3.681,12.528
			c1.591,9.287,9.006,24.368,19.482,36.181c-3.747,2.278-7.596,4.333-11.374,6.113l3.038,6.448c4.981-2.348,9.47-4.78,13.497-7.265
			c6.418,5.961,13.675,10.426,21.267,11.761c1.433,0.252,2.967,0.405,4.583,0.405c7.862,0,17.62-3.644,26.446-17.374
			c4.194,7.898,9.469,13.117,15.688,13.972c10.586,1.458,20.128-9.351,28.496-32.136c0.112,0.017,0.216,0.044,0.329,0.059
			c2.143,16.025,7.038,26.641,14.297,30.574c4.257,2.308,8.969,2.036,13.264-0.764c11.763-7.666,15.536-29.488,14.059-47.714l0,0
			c1.551-1.511,3.02-3.083,4.389-4.708l19.248,55.438l5.403,0.281l0.894-2.497c0.373-1.047,1.012-2.708,1.829-4.834
			c5.05-13.142,8.88-24.116,11.552-33.198c0.16,0.056,0.323,0.111,0.487,0.165c1.019,0.338,2.01,0.65,2.982,0.938
			c-0.063,6.205,1.384,12.369,4.427,17.84c8.036,14.448,24.398,20.538,44.881,16.712c6.569-1.227,12.458-2.799,17.718-4.642
			c13,10.382,29.782,10.837,46.747,0.75L374.358,240.021z M279.824,194.105c2.701-2.957,7.957-7.419,12.825-4.085
			c3.751,2.566,6.014,9.334,3.428,14.548c-3.08,6.211-11.886,8.12-24.21,5.515C272.943,204.291,275.633,198.692,279.824,194.105z
			 M62.813,207.823c-2.471-7.298-1.598-10.186-1.261-10.501c0.005-0.003,0.129-0.043,0.404-0.043c1.229,0,5.463,0.815,15.469,9.479
			l1.53,1.504l3.813-0.361l0.829-2.783c2.935-9.866,7.619-13.213,11.075-13.053c3.45,0.159,6.413,3.492,7.372,8.295
			c2.597,12.997-8.274,25.777-22.186,35.54C72.014,227.315,65.725,216.422,62.813,207.823z M127.139,181.757
			c0.245-25.082,4.856-32.211,6.613-32.841c0.025-0.009,0.055-0.014,0.088-0.014c0.329,0,1.027,0.454,1.809,1.384
			c7.274,8.658,11.338,39.749-3.39,72.628C128.845,211.056,126.997,196.347,127.139,181.757z M181.721,201.311h-3.564l-3.441-0.928
			c-1.204,4.469-2.401,8.494-3.584,12.152c-0.743-0.57-1.415-1.217-1.958-1.994c-5.897-8.435-2.388-15.931,0.23-19.648
			c5.875-8.346,17.354-13.007,26.125-10.617c7.854,2.143,12.806,9.314,14.438,20.826c-8.403,7.337-18.879,12.646-27.726,13.637
			C181.904,210.696,181.721,206.228,181.721,201.311z M199.491,245.644c-2.091,1.362-4.046,1.514-5.977,0.47
			c-4.093-2.219-8.387-9.746-10.485-24.295c8.901-1.015,18.922-5.543,27.593-12.078
			C211.141,229.043,205.453,241.758,199.491,245.644z M256.258,203.895c-4.873-4.112-5.839-9.644-4.843-13.956
			c0.8-3.468,2.897-6.023,4.874-6.023c0.099,0,0.199,0.007,0.298,0.021c0.382,0.051,0.611,0.158,0.891,0.631
			C259.146,187.378,258.734,193.843,256.258,203.895z M328.647,232.413c-4.316-5.815-7.468-13.027-8.65-19.784
			c-1.2-6.863,0.011-10.794,1.412-12.074c0.468-0.429,1.108-0.636,1.89-0.636c2.669,0,7,2.42,11.862,6.757l0.98,0.874l3.475,0.078
			l1.093-1.575c5.357-7.729,11.398-11.566,15.762-10.005c3.488,1.244,5.54,5.767,5.105,11.252
			c-1.088,13.764-13.904,23.656-28.917,29.787C331.093,235.516,329.756,233.909,328.647,232.413z"/>
	</g>
</g>
</svg>
